# xmcd CD database file
#
# Track frame offsets:
#	150
#	16217
#	28461
#	47275
#	66739
#	84421
#	106391
#	126573
#	144520
#	160194
#	176365
#	188091
#	202016
#	218734
#	231755
#	247383
#	261567
#	282848
#	295368
#
# Disc length: 4125 seconds
#
# Revision: 1
# Processed by: cddbd v1.5.2PL0 Copyright (c) Steve Scherf et al.
# Submitted via: CDex 1.51
#
DISCID=2b101b13
DTITLE=Zé Proença and Sueli - A Voz do Sertão - Zé Proença and Sueli e Convidados
DYEAR=2011
DGENRE=Sertanejo
TTITLE0=Brisa Diga a Ela
TTITLE1=Trem das Cinco
TTITLE2=Monjolo Velho
TTITLE3=Cenário da Vida
TTITLE4=Meu Lamento
TTITLE5=Canarinho Triste
TTITLE6=Marcas da Vida
TTITLE7=Repique do Berrante
TTITLE8=Rico Tesouro
TTITLE9=Saudosa Barrinha
TTITLE10=Saudade Não Tem Pátria - Irmãs Franco
TTITLE11=O Trapaceiro - Cacique e Pajé
TTITLE12=Poção Mágica - Peão do Vale e Valentim
TTITLE13=Berrante de Madalena - Brasão e Brasãozinho
TTITLE14=Boate Azul - Joaquim e Manuel
TTITLE15=Menino da Porteira - Nascimento e Zeloni
TTITLE16=Não Se Vá - Zeloni e Zelinda
TTITLE17=O Destino Nos Separou - Cidinha Alves
TTITLE18=Sete Irmãos - Jacó e Jacózinho
EXTD=YEAR: 2011
EXTT0=
EXTT1=
EXTT2=
EXTT3=
EXTT4=
EXTT5=
EXTT6=
EXTT7=
EXTT8=
EXTT9=
EXTT10=
EXTT11=
EXTT12=
EXTT13=
EXTT14=
EXTT15=
EXTT16=
EXTT17=
EXTT18=
PLAYORDER=
